Coordinates
version=1
nRows=12
nColumns=42
inDegrees=yes

Units are S.I. units (second, meters, Newtons, ...)
If the header above contains a line with 'inDegrees', this indicates whether rotational values are in degrees (yes) or radians (no).

endheader
time	pelvis_tilt	pelvis_list	pelvis_rotation	pelvis_tx	pelvis_ty	pelvis_tz	hip_flexion_r	hip_adduction_r	hip_rotation_r	knee_angle_r	knee_angle_r_beta	ankle_angle_r	subtalar_angle_r	mtp_angle_r	hip_flexion_l	hip_adduction_l	hip_rotation_l	knee_angle_l	knee_angle_l_beta	ankle_angle_l	subtalar_angle_l	mtp_angle_l	lumbar_extension	lumbar_bending	lumbar_rotation	sh_tx_r	sh_ty_r	sh_tz_r	sh_plane_elev_r	sh_elev_r	sh_axial_rot_r	elbow_flex_r	pro_sup_r	sh_tx_l	sh_ty_l	sh_tz_l	sh_plane_elev_l	sh_elev_l	sh_axial_rot_l	elbow_flex_l	pro_sup_l
      8.83333330	     -4.66290505	      0.51765059	     -3.31681280	      0.33515872	      0.94021405	     -0.05914693	      0.30580183	     -6.80332335	     -5.89235771	      1.00518184	      0.01754373	      0.48116341	     -7.65624392	     -7.49999987	      2.71931388	     -3.63688100	     -3.40847509	      0.93790615	      0.01636955	      5.90207971	     -1.96808107	     -7.49999987	      5.46020662	      3.29510380	     -1.25517257	     -0.01596965	     -0.00757005	     -0.00569404	    -11.71115114	      7.65715096	      9.04327998	     26.98814864	    107.10515109	     -0.02716890	      0.00711632	     -0.00548793	     65.74881551	     94.60648222	    -27.47336826	      6.81791688	      2.60558266
      8.85000000	     -4.86405092	      0.50576383	     -3.21215947	      0.33519105	      0.94004298	     -0.05909647	      0.53804514	     -6.76445714	     -5.73482297	      1.07072203	      0.01868762	      0.56778429	     -7.74999797	     -7.49999987	      2.91984292	     -3.65987545	     -3.19318525	      0.89487968	      0.01561860	      5.91971570	     -2.08324554	     -7.49999987	      5.76114503	      3.23493953	     -0.86051495	     -0.01775359	     -0.00759869	     -0.00572715	    -12.73911405	      7.59146048	      7.65744453	     26.16176470	    113.03693106	     -0.02464410	      0.00683321	     -0.00538382	     66.32267398	     93.22798667	    -19.66668424	      5.99852834	      2.41812336
      8.86666670	     -4.87306552	      0.48034253	     -3.11068182	      0.33520597	      0.94092125	     -0.05955280	      0.52641761	     -6.74088257	     -5.69189350	      1.11161943	      0.01940142	      0.61172646	     -7.82474055	     -7.49999987	      2.88027125	     -3.70439558	     -3.10395092	      0.82603799	      0.01441708	      5.98125703	     -1.95840680	     -7.49999987	      5.80043643	      3.12267094	     -0.35559125	     -0.01889418	     -0.00724193	     -0.00555452	    -12.59255366	      7.71130758	      7.57528837	     25.71751748	    112.60550532	     -0.02323669	      0.00529211	     -0.00538270	     67.09357429	     92.38395570	    -19.81739706	      6.61197271	      2.44416700
      8.88333330	     -5.15366255	      0.45338732	     -3.07413509	      0.33463415	      0.93995202	     -0.05930189	      1.19368116	     -6.74192534	     -5.66596842	      1.80201067	      0.03145102	      1.13745778	     -7.68035987	     -7.49999987	      3.47993945	     -3.77820499	     -2.97861724	      1.41369738	      0.02467367	      6.33565707	     -2.03822090	     -7.49999987	      6.49906556	      3.52160945	     -0.75671217	     -0.01534347	     -0.00428376	     -0.00543758	    -11.86000115	      7.88434777	      8.69539224	     24.64940715	    107.05095602	     -0.02028635	      0.00627233	     -0.00524452	     65.64740666	     90.38274807	    -22.05730044	      9.45919150	      5.72048712
      8.90000000	     -4.88406383	      0.42702999	     -2.95939404	      0.33525756	      0.94110851	     -0.05952052	      0.50460868	     -6.68530542	     -5.52448963	      1.14814803	      0.02003896	      0.77408074	     -7.87575137	     -7.49999987	      2.83401068	     -3.79662047	     -2.81610945	      0.77193863	      0.01347287	      6.13879008	     -1.88314383	     -7.49999987	      5.94026924	      3.20324559	     -0.31233784	     -0.01826140	     -0.00692613	     -0.00547426	    -11.84214713	      7.87344555	      7.81325568	     24.86143199	    112.68066194	     -0.02323261	      0.00357907	     -0.00536282	     66.93499813	     89.60453716	    -17.70708918	      7.21156109	      2.43773692
      8.91666670	     -4.91303478	      0.41346316	     -2.86836635	      0.33522319	      0.93772926	     -0.05918330	      0.50697188	     -6.68085711	     -5.54406118	      1.16395523	      0.02031485	      0.85604017	     -7.90421864	     -7.49999987	      2.86909094	     -3.81211142	     -2.68334014	      0.75671803	      0.01320722	      6.28342457	     -1.90535076	     -7.49999987	      5.94512152	      3.20193885	     -0.14345798	     -0.01912232	     -0.00653511	     -0.00541295	    -11.74581368	      7.87158185	      7.75957760	     24.61485767	    112.24579019	     -0.02326880	      0.00387059	     -0.00533171	     66.82888702	     88.71261272	    -18.18452352	      8.39968263	      2.44631634
      8.93333330	     -5.00101029	      0.43989840	     -2.88539022	      0.33463245	      0.93810088	     -0.05924060	      0.89665896	     -6.75915315	     -5.47592431	      1.72710883	      0.03014374	      1.29048772	     -7.78189314	     -7.49999987	      3.22897410	     -3.80388700	     -2.87638994	      1.23215461	      0.02150515	      6.50202992	     -1.79961115	     -7.49999987	      6.15098164	      3.45645636	      0.17623561	     -0.01871281	     -0.00341507	     -0.00536413	    -10.77856102	      8.25572296	      9.04262326	     24.66371390	    107.19235652	     -0.02073623	      0.00678592	     -0.00525738	     65.18842148	     86.95481537	    -18.60511680	     12.71350482	      7.63191805
      8.95000000	     -5.05595324	      0.42261984	     -2.70100427	      0.33536500	      0.94102912	     -0.05908067	      0.61267064	     -6.69584308	     -5.54684749	      1.18817706	      0.02073760	      0.88026452	     -8.12348188	     -7.49999987	      3.08079468	     -3.80938817	     -2.51703856	      0.75953917	      0.01325646	      6.30654555	     -1.97976373	     -7.49999987	      6.05237014	      3.21678011	     -0.02797613	     -0.01923848	     -0.00581945	     -0.00535063	    -11.81866543	      7.97056651	      8.43004700	     24.47141800	    112.61546426	     -0.02367742	      0.00421532	     -0.00524056	     65.76383715	     86.76711296	    -16.51778296	     11.45463572	      2.48296308
      8.96666670	     -4.98231859	      0.41302264	     -2.64338026	      0.33531196	      0.94132253	     -0.05913784	      0.49860041	     -6.67916139	     -5.52657476	      1.14678097	      0.02001510	      0.93932714	     -8.15302461	     -7.49999987	      3.03461848	     -3.81152278	     -2.42829230	      0.77663609	      0.01355486	      6.21677898	     -2.09702202	     -7.49999987	      5.80632804	      3.21233311	     -0.16255596	     -0.01901514	     -0.00535909	     -0.00532281	    -11.16526892	      8.04709995	      8.89305682	     24.59381294	    110.48869805	     -0.02390441	      0.00517930	     -0.00520928	     65.10635040	     85.43898571	    -17.75043387	     13.40000511	      2.46585744
      8.98333330	     -5.51418158	      0.42201231	     -2.63080778	      0.33482467	      0.94314271	     -0.05922691	      1.44268836	     -6.69707529	     -5.57343701	      1.80901193	      0.03157321	      1.11548728	     -8.31953395	     -7.49999987	      3.98907540	     -3.84457755	     -2.57139871	      1.44855032	      0.02528197	      6.48073208	     -1.83238291	     -7.49999987	      6.85694212	      3.57693927	     -1.40784975	     -0.01324776	     -0.00270436	     -0.00538358	    -10.81773090	      7.96394288	     10.85312170	     23.61908593	    102.36222226	     -0.02239440	      0.00938449	     -0.00511710	     63.03522564	     82.37262683	    -21.48607431	     15.61926720	      7.87428882
      9.00000000	     -5.09788602	      0.44941711	     -2.70215409	      0.33543238	      0.94077654	     -0.05874355	      0.63276955	     -6.68578535	     -5.78790077	      1.12954348	      0.01971425	      0.91641584	     -8.19514088	     -7.49999987	      3.21069826	     -3.79094791	     -2.59235299	      0.82529594	      0.01440413	      6.02923412	     -2.01915440	     -7.49999987	      5.81086413	      3.14100598	      0.09286734	     -0.01958836	     -0.00466329	     -0.00527263	    -10.84219661	      7.76562279	      8.12219219	     23.36869392	    112.61200479	     -0.02401422	      0.00633663	     -0.00526602	     64.82653484	     82.63958700	    -19.06452655	     15.12335569	      2.57215581
      9.01666670	     -5.42609928	      0.51510307	     -2.72911517	      0.33600468	      0.94318940	     -0.05829982	      0.95664299	     -6.69591310	     -6.10051558	      1.10253800	      0.01924292	      0.82464561	     -8.37078328	     -7.49999987	      3.56836891	     -3.74608908	     -2.50702092	      0.82700419	      0.01443395	      5.82965324	     -2.11071423	     -7.49999987	      6.76525073	      1.82677248	      3.44094733	     -0.01483526	      0.01542939	     -0.00515410	    -12.61910596	     15.02564045	      4.99209071	     54.41110546	    112.69247806	     -0.01108331	      0.00668928	     -0.00568545	     70.11801462	     82.78671122	    -13.94637907	      9.11920246	      2.84371725
